<?xml version="1.0" encoding="UTF-8"?>
<svg width="86px" height="72px" viewBox="0 0 86 72" version="1.1" xmlns="http://www.w3.org/2000/svg" xmlns:xlink="http://www.w3.org/1999/xlink">
    <!-- Generator: Sketch 63.1 (92452) - https://sketch.com -->
    <title>logo</title>
    <desc>Created with Sketch.</desc>
    <g id="Page-1" stroke="none" stroke-width="1" fill="none" fill-rule="evenodd">
        <g id="logo" fill-rule="nonzero">
            <path d="M82.215,42.71 C83.35,40.555 84,38.105 84,35.5 C84,28.879 79.841,23.243 73.999,21.022 C73.999,21.015 74,21.008 74,21 C74,9.402 64.598,0 53,0 C43.216,0 35.019,6.701 32.687,15.757 C31.211,15.272 29.638,15 28,15 C20.308,15 13.977,20.793 13.11,28.252 C7.906,29.353 4,33.969 4,39.5 C4,45.851 9.149,51 15.5,51 C15.677,51 15.852,50.988 16.026,50.978 C16.022,51.153 16,51.324 16,51.5 C16,62.822 25.178,72 36.5,72 C42.937,72 48.675,69.028 52.434,64.386 C54.612,66.611 57.64,68 61,68 C65.65,68 69.674,65.35 71.666,61.482 C72.718,61.817 73.837,62 75,62 C81.075,62 86,57.075 86,51 C86,47.689 84.53,44.727 82.215,42.71 Z" id="Path" fill="#C7EDE6"></path>
            <path d="M72.5,46.5 L72.5,47 L75.5,47 L75.5,46.5 C75.5,46.5 79.742,46.5 81,46.5 C83.485,46.5 85.5,44.485 85.5,42 C85.5,39.667 83.718,37.771 81.445,37.545 C81.467,37.364 81.5,37.187 81.5,37 C81.5,34.515 79.485,32.5 77,32.5 C75.562,32.5 74.297,33.186 73.473,34.236 C73.333,31.6 71.171,29.5 68.5,29.5 C65.739,29.5 63.5,31.739 63.5,34.5 C63.5,34.946 63.577,35.37 63.687,35.782 C63.045,35.005 62.086,34.5 61,34.5 C59.219,34.5 57.766,35.835 57.545,37.555 C57.364,37.533 57.187,37.5 57,37.5 C54.515,37.5 52.5,39.515 52.5,42 C52.5,44.485 54.515,46.5 57,46.5 C59.485,46.5 66.5,46.5 66.5,46.5 L72.5,46.5 Z" id="Path" fill="#FDFCEF"></path>
            <path d="M68.5,29 C65.467,29 63,31.467 63,34.5 C63,34.516 63,34.531 63,34.547 C62.398,34.192 61.71,34 61,34 C59.169,34 57.589,35.261 57.142,37.005 C57.095,37.002 57.048,37 57,37 C54.243,37 52,39.243 52,42 C52,44.757 54.243,47 57,47 L72.5,47 C72.776,47 73,46.776 73,46.5 C73,46.224 72.776,46 72.5,46 L57,46 C54.794,46 53,44.206 53,42 C53,39.794 54.794,38 57,38 C57.117,38 57.23,38.017 57.343,38.032 L57.484,38.051 C57.505,38.054 57.525,38.055 57.546,38.055 C57.792,38.055 58.008,37.87 58.041,37.618 C58.232,36.125 59.504,35 61,35 C61.885,35 62.723,35.401 63.301,36.1 C63.399,36.218 63.542,36.282 63.687,36.282 C63.765,36.282 63.843,36.264 63.915,36.226 C64.124,36.119 64.229,35.88 64.169,35.653 C64.054,35.218 64,34.852 64,34.5 C64,32.019 66.019,30 68.5,30 C70.881,30 72.847,31.872 72.974,34.263 C72.985,34.471 73.124,34.65 73.323,34.713 C73.373,34.729 73.424,34.737 73.475,34.737 C73.625,34.737 73.771,34.668 73.867,34.545 C74.638,33.563 75.779,33 77,33 C79.206,33 81,34.794 81,37 C81,37.117 80.983,37.23 80.968,37.343 L80.949,37.484 C80.933,37.618 80.971,37.752 81.055,37.857 C81.139,37.962 81.262,38.029 81.395,38.042 C83.451,38.247 85,39.949 85,42 C85,44.206 83.206,46 81,46 L75.5,46 C75.224,46 75,46.224 75,46.5 C75,46.776 75.224,47 75.5,47 L81,47 C83.757,47 86,44.757 86,42 C86,39.603 84.311,37.587 81.997,37.123 C81.999,37.082 82,37.041 82,37 C82,34.243 79.757,32 77,32 C75.824,32 74.707,32.416 73.817,33.164 C73.219,30.76 71.055,29 68.5,29 L68.5,29 Z" id="Path" fill="#472B29"></path>
            <path d="M67,36 C65.597,36 64.391,36.999 64.087,38.341 C63.72,38.119 63.301,38 62.875,38 C61.673,38 60.677,38.897 60.522,40.068 C60.319,40.022 60.126,40 59.938,40 C58.409,40 57.127,41.2 57.02,42.732 C57.01,42.87 57.114,42.99 57.251,43 C57.257,43 57.263,43 57.269,43 C57.399,43 57.509,42.899 57.518,42.768 C57.607,41.497 58.669,40.5 59.937,40.5 C60.166,40.5 60.407,40.542 60.675,40.627 C60.697,40.634 60.72,40.637 60.742,40.637 C60.797,40.637 60.852,40.617 60.898,40.583 C60.962,40.537 61,40.455 61,40.375 C61,39.341 61.841,38.5 62.875,38.5 C63.322,38.5 63.76,38.668 64.106,38.973 C64.153,39.014 64.212,39.036 64.271,39.036 C64.303,39.036 64.334,39.03 64.364,39.017 C64.452,38.982 64.512,38.9 64.519,38.805 C64.623,37.512 65.712,36.5 67,36.5 C67.208,36.5 67.425,36.534 67.682,36.607 C67.705,36.614 67.729,36.617 67.752,36.617 C67.861,36.617 67.959,36.544 67.991,36.435 C68.029,36.302 67.952,36.164 67.819,36.126 C67.517,36.04 67.256,36 67,36 L67,36 Z M80.883,37.5 C79.557,37.5 78.375,38.397 78.009,39.682 C77.971,39.815 78.048,39.953 78.181,39.991 C78.205,39.997 78.228,40 78.25,40 C78.359,40 78.459,39.928 78.49,39.818 C78.795,38.748 79.779,38 80.883,38 C81,38 81.113,38.014 81.225,38.029 C81.237,38.031 81.248,38.032 81.26,38.032 C81.381,38.032 81.489,37.94 81.506,37.815 C81.525,37.678 81.429,37.552 81.292,37.534 C81.158,37.516 81.022,37.5 80.883,37.5 L80.883,37.5 Z" id="Shape" fill="#472B29"></path>
            <path d="M10.5,37 L0.5,37 C0.224,37 0,36.776 0,36.5 C0,36.224 0.224,36 0.5,36 L10.5,36 C10.776,36 11,36.224 11,36.5 C11,36.776 10.777,37 10.5,37 Z M13.5,37 L12.5,37 C12.224,37 12,36.776 12,36.5 C12,36.224 12.224,36 12.5,36 L13.5,36 C13.776,36 14,36.224 14,36.5 C14,36.776 13.777,37 13.5,37 Z M18.491,39 L9.5,39 C9.224,39 9,38.776 9,38.5 C9,38.224 9.224,38 9.5,38 L18.491,38 C18.767,38 18.991,38.224 18.991,38.5 C18.991,38.776 18.767,39 18.491,39 Z M7.5,39 L6.5,39 C6.224,39 6,38.776 6,38.5 C6,38.224 6.224,38 6.5,38 L7.5,38 C7.776,38 8,38.224 8,38.5 C8,38.776 7.777,39 7.5,39 Z M4.5,39 L2.5,39 C2.224,39 2,38.776 2,38.5 C2,38.224 2.224,38 2.5,38 L4.5,38 C4.776,38 5,38.224 5,38.5 C5,38.776 4.777,39 4.5,39 Z M10.5,41 L8.5,41 C8.224,41 8,40.776 8,40.5 C8,40.224 8.224,40 8.5,40 L10.5,40 C10.776,40 11,40.224 11,40.5 C11,40.776 10.776,41 10.5,41 Z M13.5,32 C13.323,32 12.677,32 12.5,32 C12.224,32 12,32.224 12,32.5 C12,32.776 12.224,33 12.5,33 C12.677,33 13.323,33 13.5,33 C13.776,33 14,32.776 14,32.5 C14,32.224 13.776,32 13.5,32 Z M13.5,34 C13.323,34 8.677,34 8.5,34 C8.224,34 8,34.224 8,34.5 C8,34.776 8.224,35 8.5,35 C8.677,35 13.323,35 13.5,35 C13.776,35 14,34.776 14,34.5 C14,34.224 13.776,34 13.5,34 Z M18.5,36 C18.323,36 15.677,36 15.5,36 C15.224,36 15,36.224 15,36.5 C15,36.776 15.224,37 15.5,37 C15.677,37 18.323,37 18.5,37 C18.776,37 19,36.776 19,36.5 C19,36.224 18.776,36 18.5,36 Z M67.5,10 L57.5,10 C57.224,10 57,9.776 57,9.5 C57,9.224 57.224,9 57.5,9 L67.5,9 C67.776,9 68,9.224 68,9.5 C68,9.776 67.776,10 67.5,10 Z M71.5,10 L69.5,10 C69.224,10 69,9.776 69,9.5 C69,9.224 69.224,9 69.5,9 L71.5,9 C71.776,9 72,9.224 72,9.5 C72,9.776 71.776,10 71.5,10 Z M76.5,12 L66.5,12 C66.224,12 66,11.776 66,11.5 C66,11.224 66.224,11 66.5,11 L76.5,11 C76.776,11 77,11.224 77,11.5 C77,11.776 76.777,12 76.5,12 Z M64.5,12 L63.5,12 C63.224,12 63,11.776 63,11.5 C63,11.224 63.224,11 63.5,11 L64.5,11 C64.776,11 65,11.224 65,11.5 C65,11.776 64.776,12 64.5,12 Z M61.47,12 L59.5,12 C59.224,12 59,11.776 59,11.5 C59,11.224 59.224,11 59.5,11 L61.47,11 C61.746,11 61.97,11.224 61.97,11.5 C61.97,11.776 61.746,12 61.47,12 Z M70.5,8 L65.5,8 C65.224,8 65,7.776 65,7.5 C65,7.224 65.224,7 65.5,7 L70.5,7 C70.776,7 71,7.224 71,7.5 C71,7.776 70.777,8 70.5,8 Z M67.5,14 L65.5,14 C65.224,14 65,13.776 65,13.5 C65,13.224 65.224,13 65.5,13 L67.5,13 C67.776,13 68,13.224 68,13.5 C68,13.776 67.776,14 67.5,14 Z" id="Shape" fill="#FFFFFF"></path>
            <g id="icons8-time" transform="translate(26.000000, 13.000000)">
                <polygon id="Rectangle" fill="#CECCBE" transform="translate(33.167036, 14.844086) rotate(45.001000) translate(-33.167036, -14.844086) " points="31.1398366 12.0926508 35.1958726 12.091444 35.194235 17.5955207 31.138199 17.5967275"></polygon>
                <path d="M32.4601435,19 L29,15.5404738 L33.5398565,11 L37,14.4595262 L32.4601435,19 Z M29.8735242,15.5398565 L32.4607609,18.1264758 L36.1277105,14.4595262 L33.5404738,11.8729069 L29.8735242,15.5398565 Z" id="Shape" fill="#1F212B"></path>
                <path d="M40.8244094,11.4250895 L36.575117,7.17604251 C36.3403801,6.94131916 35.9602418,6.94131916 35.7255049,7.17604251 L33.1760527,9.7253475 C32.9413158,9.96007085 32.9413158,10.3401871 33.1760527,10.5749105 L37.4253451,14.8239575 C37.660082,15.0586808 38.0402203,15.0586808 38.2749572,14.8239575 L40.8244094,12.2746525 C41.0585302,12.0405452 41.0585302,11.6598129 40.8244094,11.4250895 Z" id="Path" fill="#E3E3E4"></path>
                <path d="M37.328173,16 C37.0116776,16 36.7137995,15.8761171 36.4897905,15.651805 L32.3483251,11.5047358 C32.1237155,11.2804236 32,10.9821426 32,10.6646175 C32,10.3470925 32.1237155,10.0494128 32.3477245,9.82510065 L34.832844,7.33661861 C35.279661,6.88799425 36.0627919,6.88739288 36.5108101,7.33721999 L40.6522755,11.4842891 C40.8762845,11.7086013 41,12.0068824 41,12.323806 C41,12.6407297 40.8762845,12.9390107 40.6522755,13.1633229 L38.167156,15.651805 C37.9431469,15.8761171 37.6446684,16 37.328173,16 Z M35.6610169,8.18696023 L33.1969171,10.6754423 L37.3383825,14.8014633 L39.7922728,12.323806 L35.6610169,8.18696023 Z" id="Shape" fill="#1F212B"></path>
                <rect id="Rectangle" fill="#CECCBE" x="17" y="6" width="6" height="6"></rect>
                <path d="M23,12 L17,12 L17,6 L23,6 L23,12 Z M17.5454545,11.4285714 L22.4545455,11.4285714 L22.4545455,6.57142857 L17.5454545,6.57142857 L17.5454545,11.4285714 Z" id="Shape" fill="#1F212B"></path>
                <path d="M24.4210526,7 L14.5789474,7 C14.2593684,7 14,6.7312 14,6.4 L14,1.6 C14,1.2688 14.2593684,1 14.5789474,1 L24.4210526,1 C24.7406316,1 25,1.2688 25,1.6 L25,6.4 C25,6.7312 24.7406316,7 24.4210526,7 Z" id="Path" fill="#E3E3E4"></path>
                <path d="M24.8571429,7 L15.1428571,7 C14.5125714,7 14,6.47675 14,5.83333333 L14,1.16666667 C14,0.52325 14.5125714,0 15.1428571,0 L24.8571429,0 C25.4874286,0 26,0.52325 26,1.16666667 L26,5.83333333 C26,6.47675 25.4874286,7 24.8571429,7 Z M15.1428571,1.16666667 L15.1428571,5.83333333 L24.8577143,5.83333333 L24.8571429,1.16666667 L15.1428571,1.16666667 Z" id="Shape" fill="#1F212B"></path>
                <circle id="Oval" fill="#78A2D2" cx="20" cy="28" r="19"></circle>
                <path d="M19.5,48 C8.74764179,48 0,39.2523582 0,28.5 C0,17.7476418 8.74764179,9 19.5,9 C30.2523582,9 39,17.7476418 39,28.5 C39,39.2523582 30.2523582,48 19.5,48 Z M19.5,10.1641791 C9.38968657,10.1641791 1.1641791,18.3896866 1.1641791,28.5 C1.1641791,38.6103134 9.38968657,46.8358209 19.5,46.8358209 C29.6103134,46.8358209 37.8358209,38.6103134 37.8358209,28.5 C37.8358209,18.3896866 29.6103134,10.1641791 19.5,10.1641791 Z" id="Shape" fill="#1F212B"></path>
                <circle id="Oval" fill="#FEFDEF" cx="19.5" cy="28.5" r="15.5"></circle>
                <path d="M19.5,14 C19.224,14 19,13.888 19,13.75 L19,12.25 C19,12.112 19.224,12 19.5,12 C19.776,12 20,12.112 20,12.25 L20,13.75 C20,13.888 19.776,14 19.5,14 Z" id="Path" fill="#1F212B"></path>
                <path d="M9.68001923,19 C9.59798109,19 9.51594296,18.9685923 9.45313251,18.9064178 L8.09373498,17.5469113 C7.96875501,17.4219213 7.96875501,17.2187325 8.09373498,17.0937425 C8.21871495,16.9687525 8.42188752,16.9687525 8.54686749,17.0937425 L9.90626502,18.4532489 C10.031245,18.5782389 10.031245,18.7814278 9.90626502,18.9064178 C9.8440955,18.9685923 9.76205736,19 9.68001923,19 Z" id="Path" fill="#1F212B"></path>
                <path d="M5.75,29 L4.25,29 C4.112,29 4,28.776 4,28.5 C4,28.224 4.112,28 4.25,28 L5.75,28 C5.888,28 6,28.224 6,28.5 C6,28.776 5.888,29 5.75,29 Z" id="Path" fill="#1F212B"></path>
                <path d="M8.3206217,40 C8.23858356,40 8.15654543,39.9685923 8.09373498,39.9064178 C7.96875501,39.7814278 7.96875501,39.5782389 8.09373498,39.4532489 L9.45313251,38.0937425 C9.57811248,37.9687525 9.78128505,37.9687525 9.90626502,38.0937425 C10.031245,38.2187325 10.031245,38.4219213 9.90626502,38.5469113 L8.54686749,39.9064178 C8.48469797,39.9685923 8.40265983,40 8.3206217,40 Z" id="Path" fill="#1F212B"></path>
                <path d="M19.5,44 C19.224,44 19,43.888 19,43.75 L19,42.25 C19,42.112 19.224,42 19.5,42 C19.776,42 20,42.112 20,42.25 L20,43.75 C20,43.888 19.776,44 19.5,44 Z" id="Path" fill="#1F212B"></path>
                <path d="M30.6800192,40 C30.5979811,40 30.515943,39.9685923 30.4531325,39.9064178 L29.093735,38.5469113 C28.968755,38.4219213 28.968755,38.2187325 29.093735,38.0937425 C29.2187149,37.9687525 29.4218875,37.9687525 29.5468675,38.0937425 L30.906265,39.4532489 C31.031245,39.5782389 31.031245,39.7814278 30.906265,39.9064178 C30.8440955,39.9685923 30.7620574,40 30.6800192,40 Z" id="Path" fill="#1F212B"></path>
                <path d="M35.75,29 L34.25,29 C34.112,29 34,28.776 34,28.5 C34,28.224 34.112,28 34.25,28 L35.75,28 C35.888,28 36,28.224 36,28.5 C36,28.776 35.888,29 35.75,29 Z" id="Path" fill="#1F212B"></path>
                <path d="M29.3206217,19 C29.2385836,19 29.1565454,18.9685923 29.093735,18.9064178 C28.968755,18.7814278 28.968755,18.5782389 29.093735,18.4532489 L30.4531325,17.0937425 C30.5781125,16.9687525 30.7812851,16.9687525 30.906265,17.0937425 C31.031245,17.2187325 31.031245,17.4219213 30.906265,17.5469113 L29.5468675,18.9064178 C29.484698,18.9685923 29.4026598,19 29.3206217,19 Z" id="Path" fill="#1F212B"></path>
                <path d="M25.5602769,32.4397232 C25.3370781,32.2165165 24.5834818,31.4628939 24.360283,31.2396872 C23.9252852,30.8046741 23.2910883,30.6942708 22.752891,30.9048771 C21.8378956,29.9898497 12.2223439,20.3733612 12.0243449,20.1759553 C11.789746,19.9413482 11.4099479,19.9413482 11.1759491,20.1759553 C10.9413503,20.4105623 10.9413503,20.7903737 11.1759491,21.0243807 C11.3739481,21.2223867 20.9900999,30.8388752 21.9044953,31.7533026 C21.6938963,32.2915187 21.8042958,32.9263378 22.2392936,33.3607508 C22.4624925,33.5839575 23.2160887,34.3375801 23.4392876,34.5607868 C24.0248847,35.1464044 24.9746799,35.1464044 25.5608769,34.5607868 C26.147074,33.9751693 26.145874,33.0259408 25.5602769,32.4397232 Z" id="Path" fill="#F37E98"></path>
                <path d="M24.2703625,35 C23.8082027,35 23.3731609,34.8194092 23.046591,34.4928456 L21.8926339,33.3389107 C21.4529762,32.8992615 21.2873834,32.2611355 21.4460525,31.6680129 L11.2531493,21.4764597 C10.9156169,21.1389338 10.9156169,20.5902377 11.2531493,20.2527117 C11.5906818,19.9157628 12.1393884,19.9157628 12.4769209,20.2527117 L22.669247,30.4448419 C23.261227,30.284445 23.8999423,30.4523425 24.3401769,30.8914147 L25.4941341,32.0453496 C26.168622,32.7204016 26.168622,33.8183706 25.4941341,34.4928456 C25.1675642,34.8199862 24.7325224,35 24.2703625,35 Z M11.8653236,20.5758135 C11.7914703,20.5758135 11.7176171,20.6040849 11.6610732,20.6600508 C11.5485624,20.7725594 11.5485624,20.9554581 11.6610732,21.0679668 L21.9780267,31.3852989 C22.0593807,31.4666513 22.0847678,31.5878144 22.0426483,31.6939765 C21.8753246,32.1215093 21.9762958,32.6073159 22.2999808,32.9309947 L23.4539379,34.0849296 C23.8901337,34.521117 24.6494374,34.521117 25.0856332,34.0849296 C25.5356765,33.635472 25.5356765,32.9027233 25.0856332,32.4532656 L25.0856332,32.4532656 L23.9316761,31.2993307 C23.6085681,30.975652 23.1221752,30.8741057 22.6952111,31.0425802 C22.58847,31.0829679 22.4667276,31.0593123 22.3859506,30.9779598 L12.069574,20.6600508 C12.0130301,20.6040849 11.9391768,20.5758135 11.8653236,20.5758135 Z" id="Shape" fill="#1F212B"></path>
                <circle id="Oval" fill="#FEF6AA" cx="20" cy="29" r="2"></circle>
                <path d="M20,31 C18.8971429,31 18,30.1028571 18,29 C18,27.8971429 18.8971429,27 20,27 C21.1028571,27 22,27.8971429 22,29 C22,30.1028571 21.1028571,31 20,31 Z M20,27.5714286 C19.2125714,27.5714286 18.5714286,28.212 18.5714286,29 C18.5714286,29.788 19.2125714,30.4285714 20,30.4285714 C20.7874286,30.4285714 21.4285714,29.788 21.4285714,29 C21.4285714,28.212 20.7874286,27.5714286 20,27.5714286 Z" id="Shape" fill="#1F212B"></path>
                <path d="M16.5,7 C16.224,7 16,6.85066667 16,6.66666667 L16,5.33333333 C16,5.14933333 16.224,5 16.5,5 C16.776,5 17,5.14933333 17,5.33333333 L17,6.66666667 C17,6.85066667 16.776,7 16.5,7 Z" id="Path" fill="#1F212B"></path>
                <path d="M16.5,4 C16.224,4 16,3.8656 16,3.7 L16,1.3 C16,1.1344 16.224,1 16.5,1 C16.776,1 17,1.1344 17,1.3 L17,3.7 C17,3.8656 16.776,4 16.5,4 Z" id="Path" fill="#1F212B"></path>
                <path d="M17.5,7 C17.224,7 17,6.8656 17,6.7 L17,1.3 C17,1.1344 17.224,1 17.5,1 C17.776,1 18,1.1344 18,1.3 L18,6.7 C18,6.8656 17.776,7 17.5,7 Z" id="Path" fill="#1F212B"></path>
                <path d="M19.5,5 C19.224,5 19,4.86 19,4.6875 L19,0.3125 C19,0.14 19.224,0 19.5,0 C19.776,0 20,0.14 20,0.3125 L20,4.6875 C20,4.86 19.776,5 19.5,5 Z" id="Path" fill="#1F212B"></path>
                <path d="M21.5,7 C21.224,7 21,6.8656 21,6.7 L21,1.3 C21,1.1344 21.224,1 21.5,1 C21.776,1 22,1.1344 22,1.3 L22,6.7 C22,6.8656 21.776,7 21.5,7 Z" id="Path" fill="#1F212B"></path>
                <path d="M23.5,7 C23.224,7 23,6.85066667 23,6.66666667 L23,3.33333333 C23,3.14933333 23.224,3 23.5,3 C23.776,3 24,3.14933333 24,3.33333333 L24,6.66666667 C24,6.85066667 23.776,7 23.5,7 Z" id="Path" fill="#1F212B"></path>
                <path d="M23.5,2 C23.224,2 23,1.85066667 23,1.66666667 L23,0.333333333 C23,0.149333333 23.224,0 23.5,0 C23.776,0 24,0.149333333 24,0.333333333 L24,1.66666667 C24,1.85066667 23.776,2 23.5,2 Z" id="Path" fill="#1F212B"></path>
                <path d="M20,44 C11.1773091,44 4,36.8221091 4,28 C4,19.1778909 11.1773091,12 20,12 C25.8338909,12 31.2075636,15.1790545 34.0241455,20.2961455 C34.1015273,20.4369455 34.0503273,20.6138182 33.9095273,20.6917818 C33.7687273,20.7691636 33.5912727,20.7173818 33.5144727,20.5771636 C30.8002909,15.6456727 25.6221091,12.5818182 20,12.5818182 C11.4984727,12.5818182 4.58181818,19.4984727 4.58181818,28 C4.58181818,36.5015273 11.4984727,43.4181818 20,43.4181818 C28.5015273,43.4181818 35.4181818,36.5015273 35.4181818,28 C35.4181818,27.6561455 35.4036364,27.2930909 35.3716364,26.8573091 C35.3594182,26.6973091 35.4804364,26.5576727 35.6404364,26.5460364 C35.8068364,26.5332364 35.9400727,26.6548364 35.9517091,26.8154182 C35.9848727,27.2651636 36,27.6416 36,28 C36,36.8221091 28.8226909,44 20,44 Z" id="Path" fill="#1F212B"></path>
                <path d="M35.6538914,26 C35.4907618,26 35.3462954,25.8885765 35.314499,25.7284469 C35.2149623,25.22137 35.1188817,24.8050331 35.0117416,24.4180533 C34.9626645,24.2399092 35.0718783,24.0577618 35.2564359,24.0097229 C35.4409935,23.9670217 35.6310809,24.0684371 35.6794668,24.245914 C35.7914456,24.6489068 35.8916735,25.0805894 35.993975,25.6043465 C36.0292276,25.7851595 35.9061892,25.9599676 35.7188667,25.9939951 C35.6967475,25.9979984 35.6753194,26 35.6538914,26 Z" id="Path" fill="#1F212B"></path>
            </g>
            <g id="Group" transform="translate(13.000000, 46.000000)">
                <path d="M18.5,13.5 C18.5,13.5 20.067,13.5 22,13.5 C23.933,13.5 25.5,11.933 25.5,10 C25.5,8.219 24.165,6.766 22.445,6.545 C22.473,6.366 22.5,6.187 22.5,6 C22.5,4.067 20.933,2.5 19,2.5 C17.968,2.5 17.05,2.955 16.41,3.665 C16.026,1.857 14.423,0.5 12.5,0.5 C10.291,0.5 8.5,2.291 8.5,4.5 C8.5,4.691 8.53,4.874 8.556,5.058 C8.128,4.714 7.592,4.5 7,4.5 C5.772,4.5 4.755,5.387 4.545,6.555 C4.366,6.527 4.187,6.5 4,6.5 C2.067,6.5 0.5,8.067 0.5,10 C0.5,11.933 2.067,13.5 4,13.5 C5.933,13.5 11.5,13.5 11.5,13.5 L11.5,14 L18.5,14 L18.5,13.5 Z" id="Path" fill="#FDFCEF"></path>
                <path d="M20.25,9 C20.112,9 20,8.888 20,8.75 C20,7.527 20.995,6.532 22.218,6.532 C22.252,6.541 22.955,6.531 23.462,6.668 C23.595,6.704 23.674,6.841 23.638,6.974 C23.602,7.108 23.465,7.187 23.332,7.15 C22.888,7.03 22.232,7.03 22.219,7.032 C21.271,7.032 20.5,7.803 20.5,8.75 C20.5,8.888 20.388,9 20.25,9 Z M13.5,13 C13.2238576,13 13,13.2238576 13,13.5 C13,13.7761424 13.2238576,14 13.5,14 C13.7761424,14 14,13.7761424 14,13.5 C14,13.2238576 13.7761424,13 13.5,13 Z" id="Shape" fill="#472B29"></path>
                <path d="M22,14 L18.5,14 C18.224,14 18,13.776 18,13.5 C18,13.224 18.224,13 18.5,13 L22,13 C23.654,13 25,11.654 25,10 C25,8.504 23.875,7.232 22.382,7.041 C22.248,7.023 22.127,6.953 22.046,6.845 C21.965,6.737 21.931,6.601 21.952,6.468 C21.975,6.314 22,6.16 22,6 C22,4.346 20.654,3 19,3 C18.15,3 17.362,3.355 16.781,4 C16.656,4.139 16.46,4.198 16.281,4.148 C16.099,4.099 15.96,3.953 15.921,3.769 C15.58,2.165 14.141,1 12.5,1 C10.57,1 9,2.57 9,4.5 C9,4.643 9.021,4.78 9.041,4.918 C9.07,5.121 8.978,5.356 8.799,5.458 C8.62,5.56 8.403,5.576 8.243,5.448 C7.878,5.155 7.449,5 7,5 C6.034,5 5.208,5.691 5.037,6.644 C4.989,6.911 4.741,7.09 4.468,7.049 C4.314,7.025 4.16,7 4,7 C2.346,7 1,8.346 1,10 C1,11.654 2.346,13 4,13 L11.5,13 C11.776,13 12,13.224 12,13.5 C12,13.776 11.776,14 11.5,14 L4,14 C1.794,14 0,12.206 0,10 C0,7.794 1.794,6 4,6 C4.059,6 4.116,6.002 4.174,6.006 C4.588,4.82 5.711,4 7,4 C7.349,4 7.689,4.061 8.011,4.18 C8.176,1.847 10.126,0 12.5,0 C14.331,0 15.966,1.127 16.653,2.774 C17.333,2.276 18.155,2 19,2 C21.206,2 23,3.794 23,6 C23,6.048 22.999,6.095 22.996,6.142 C24.739,6.59 26,8.169 26,10 C26,12.206 24.206,14 22,14 Z" id="Path" fill="#472B29"></path>
                <path d="M16.5,13 C16.341,13 15.659,13 15.5,13 C15.224,13 15,13.224 15,13.5 C15,13.776 15.224,14 15.5,14 C15.659,14 16.341,14 16.5,14 C16.776,14 17,13.776 17,13.5 C17,13.224 16.776,13 16.5,13 Z" id="Path" fill="#472B29"></path>
            </g>
        </g>
    </g>
</svg>